<svg xmlns="http://www.w3.org/2000/svg" xmlns:xlink="http://www.w3.org/1999/xlink" width="200" zoomAndPan="magnify" viewBox="0 0 150 54" height="72" preserveAspectRatio="xMidYMid meet" version="1.0"><defs><g/></defs><g fill="#000000" fill-opacity="1"><g transform="translate(53.276103, 33.645581)"><g><path d="M 4.75 0.25 C 4.03125 0.25 3.378906 0.117188 2.796875 -0.140625 C 2.210938 -0.410156 1.75 -0.800781 1.40625 -1.3125 C 1.0625 -1.832031 0.890625 -2.46875 0.890625 -3.21875 C 0.890625 -3.863281 1.015625 -4.382812 1.265625 -4.78125 C 1.523438 -5.1875 1.867188 -5.503906 2.296875 -5.734375 C 2.722656 -5.972656 3.195312 -6.148438 3.71875 -6.265625 C 4.238281 -6.378906 4.765625 -6.46875 5.296875 -6.53125 C 5.984375 -6.625 6.535156 -6.691406 6.953125 -6.734375 C 7.367188 -6.785156 7.675781 -6.867188 7.875 -6.984375 C 8.082031 -7.097656 8.1875 -7.289062 8.1875 -7.5625 L 8.1875 -7.640625 C 8.1875 -8.097656 8.09375 -8.488281 7.90625 -8.8125 C 7.726562 -9.132812 7.460938 -9.382812 7.109375 -9.5625 C 6.753906 -9.738281 6.316406 -9.828125 5.796875 -9.828125 C 5.253906 -9.828125 4.789062 -9.742188 4.40625 -9.578125 C 4.019531 -9.410156 3.707031 -9.191406 3.46875 -8.921875 C 3.226562 -8.660156 3.0625 -8.382812 2.96875 -8.09375 L 1.203125 -8.5625 C 1.429688 -9.25 1.78125 -9.800781 2.25 -10.21875 C 2.71875 -10.632812 3.253906 -10.9375 3.859375 -11.125 C 4.472656 -11.320312 5.101562 -11.421875 5.75 -11.421875 C 6.1875 -11.421875 6.648438 -11.363281 7.140625 -11.25 C 7.628906 -11.144531 8.085938 -10.953125 8.515625 -10.671875 C 8.953125 -10.390625 9.304688 -9.992188 9.578125 -9.484375 C 9.847656 -8.972656 9.984375 -8.3125 9.984375 -7.5 L 9.984375 0 L 8.203125 0 L 8.203125 -1.546875 L 8.09375 -1.546875 C 7.96875 -1.285156 7.765625 -1.015625 7.484375 -0.734375 C 7.203125 -0.453125 6.835938 -0.21875 6.390625 -0.03125 C 5.941406 0.15625 5.394531 0.25 4.75 0.25 Z M 5.046875 -1.359375 C 5.734375 -1.359375 6.304688 -1.488281 6.765625 -1.75 C 7.234375 -2.019531 7.585938 -2.363281 7.828125 -2.78125 C 8.066406 -3.207031 8.1875 -3.648438 8.1875 -4.109375 L 8.1875 -5.640625 C 8.101562 -5.554688 7.941406 -5.476562 7.703125 -5.40625 C 7.472656 -5.34375 7.203125 -5.285156 6.890625 -5.234375 C 6.585938 -5.179688 6.285156 -5.132812 5.984375 -5.09375 C 5.679688 -5.050781 5.425781 -5.019531 5.21875 -5 C 4.78125 -4.945312 4.367188 -4.851562 3.984375 -4.71875 C 3.609375 -4.582031 3.300781 -4.390625 3.0625 -4.140625 C 2.832031 -3.890625 2.71875 -3.550781 2.71875 -3.125 C 2.71875 -2.738281 2.816406 -2.414062 3.015625 -2.15625 C 3.222656 -1.894531 3.5 -1.695312 3.84375 -1.5625 C 4.1875 -1.425781 4.585938 -1.359375 5.046875 -1.359375 Z M 5.046875 -1.359375 "/></g></g></g><g fill="#000000" fill-opacity="1"><g transform="translate(63.063965, 33.645581)"><g><path d="M 1.546875 0 L 1.546875 -11.265625 L 3.3125 -11.265625 L 3.3125 -8.796875 L 3.15625 -8.796875 C 3.320312 -9.390625 3.570312 -9.882812 3.90625 -10.28125 C 4.25 -10.675781 4.644531 -10.972656 5.09375 -11.171875 C 5.550781 -11.367188 6.023438 -11.46875 6.515625 -11.46875 C 7.335938 -11.46875 8.015625 -11.210938 8.546875 -10.703125 C 9.078125 -10.203125 9.414062 -9.554688 9.5625 -8.765625 L 9.296875 -8.765625 C 9.429688 -9.316406 9.675781 -9.789062 10.03125 -10.1875 C 10.382812 -10.59375 10.816406 -10.90625 11.328125 -11.125 C 11.835938 -11.351562 12.394531 -11.46875 13 -11.46875 C 13.65625 -11.46875 14.253906 -11.320312 14.796875 -11.03125 C 15.335938 -10.75 15.769531 -10.316406 16.09375 -9.734375 C 16.425781 -9.160156 16.59375 -8.429688 16.59375 -7.546875 L 16.59375 0 L 14.765625 0 L 14.765625 -7.5 C 14.765625 -8.332031 14.535156 -8.925781 14.078125 -9.28125 C 13.617188 -9.632812 13.082031 -9.8125 12.46875 -9.8125 C 11.945312 -9.8125 11.5 -9.703125 11.125 -9.484375 C 10.757812 -9.273438 10.472656 -8.976562 10.265625 -8.59375 C 10.066406 -8.21875 9.96875 -7.789062 9.96875 -7.3125 L 9.96875 0 L 8.15625 0 L 8.15625 -7.6875 C 8.15625 -8.332031 7.941406 -8.847656 7.515625 -9.234375 C 7.097656 -9.617188 6.566406 -9.8125 5.921875 -9.8125 C 5.472656 -9.8125 5.050781 -9.707031 4.65625 -9.5 C 4.257812 -9.289062 3.941406 -8.976562 3.703125 -8.5625 C 3.472656 -8.15625 3.359375 -7.648438 3.359375 -7.046875 L 3.359375 0 Z M 1.546875 0 "/></g></g></g><g fill="#000000" fill-opacity="1"><g transform="translate(79.44909, 33.645581)"><g><path d="M 1.546875 4.265625 L 1.546875 -11.265625 L 3.296875 -11.265625 L 3.296875 -9.484375 L 3.453125 -9.484375 C 3.609375 -9.734375 3.8125 -10.007812 4.0625 -10.3125 C 4.320312 -10.613281 4.671875 -10.875 5.109375 -11.09375 C 5.546875 -11.3125 6.101562 -11.421875 6.78125 -11.421875 C 7.738281 -11.421875 8.570312 -11.179688 9.28125 -10.703125 C 10 -10.234375 10.5625 -9.5625 10.96875 -8.6875 C 11.382812 -7.820312 11.59375 -6.796875 11.59375 -5.609375 C 11.59375 -4.421875 11.390625 -3.390625 10.984375 -2.515625 C 10.578125 -1.640625 10.015625 -0.960938 9.296875 -0.484375 C 8.578125 -0.00390625 7.742188 0.234375 6.796875 0.234375 C 6.128906 0.234375 5.578125 0.125 5.140625 -0.09375 C 4.703125 -0.3125 4.351562 -0.570312 4.09375 -0.875 C 3.832031 -1.1875 3.625 -1.472656 3.46875 -1.734375 L 3.359375 -1.734375 L 3.359375 4.265625 Z M 6.515625 -1.390625 C 7.210938 -1.390625 7.800781 -1.570312 8.28125 -1.9375 C 8.757812 -2.300781 9.117188 -2.800781 9.359375 -3.4375 C 9.609375 -4.082031 9.734375 -4.8125 9.734375 -5.625 C 9.734375 -6.425781 9.609375 -7.140625 9.359375 -7.765625 C 9.117188 -8.398438 8.757812 -8.894531 8.28125 -9.25 C 7.800781 -9.613281 7.210938 -9.796875 6.515625 -9.796875 C 5.828125 -9.796875 5.242188 -9.617188 4.765625 -9.265625 C 4.285156 -8.921875 3.921875 -8.4375 3.671875 -7.8125 C 3.429688 -7.1875 3.3125 -6.457031 3.3125 -5.625 C 3.3125 -4.78125 3.429688 -4.039062 3.671875 -3.40625 C 3.921875 -2.769531 4.285156 -2.273438 4.765625 -1.921875 C 5.253906 -1.566406 5.835938 -1.390625 6.515625 -1.390625 Z M 6.515625 -1.390625 "/></g></g></g><g fill="#000000" fill-opacity="1"><g transform="translate(90.287217, 33.645581)"><g><path d="M 3.359375 -15.203125 L 3.359375 0 L 1.546875 0 L 1.546875 -15.203125 Z M 3.359375 -15.203125 "/></g></g></g><g fill="#000000" fill-opacity="1"><g transform="translate(93.447234, 33.645581)"><g><path d="M 1.546875 0 L 1.546875 -11.265625 L 3.359375 -11.265625 L 3.359375 0 Z M 2.453125 -13.171875 C 2.109375 -13.171875 1.8125 -13.289062 1.5625 -13.53125 C 1.320312 -13.769531 1.203125 -14.054688 1.203125 -14.390625 C 1.203125 -14.722656 1.320312 -15.003906 1.5625 -15.234375 C 1.8125 -15.472656 2.109375 -15.59375 2.453125 -15.59375 C 2.796875 -15.59375 3.09375 -15.472656 3.34375 -15.234375 C 3.59375 -15.003906 3.71875 -14.722656 3.71875 -14.390625 C 3.71875 -14.054688 3.59375 -13.769531 3.34375 -13.53125 C 3.09375 -13.289062 2.796875 -13.171875 2.453125 -13.171875 Z M 2.453125 -13.171875 "/></g></g></g><g fill="#000000" fill-opacity="1"><g transform="translate(96.607252, 33.645581)"><g><path d="M 6.71875 -11.265625 L 6.71875 -9.703125 L 0.1875 -9.703125 L 0.1875 -11.265625 Z M 2.359375 0 L 2.359375 -12.875 C 2.359375 -13.5 2.503906 -14.023438 2.796875 -14.453125 C 3.097656 -14.878906 3.488281 -15.203125 3.96875 -15.421875 C 4.445312 -15.640625 4.960938 -15.75 5.515625 -15.75 C 5.898438 -15.75 6.226562 -15.722656 6.5 -15.671875 C 6.78125 -15.617188 6.976562 -15.566406 7.09375 -15.515625 L 6.6875 -13.96875 C 6.601562 -13.988281 6.476562 -14.015625 6.3125 -14.046875 C 6.144531 -14.078125 5.945312 -14.09375 5.71875 -14.09375 C 5.175781 -14.09375 4.785156 -13.957031 4.546875 -13.6875 C 4.304688 -13.425781 4.1875 -13.03125 4.1875 -12.5 L 4.1875 0 Z M 2.359375 0 "/></g></g></g><g fill="#000000" fill-opacity="1"><g transform="translate(102.306249, 33.645581)"><g><path d="M 1.546875 0 L 1.546875 -11.265625 L 3.359375 -11.265625 L 3.359375 0 Z M 2.453125 -13.171875 C 2.109375 -13.171875 1.8125 -13.289062 1.5625 -13.53125 C 1.320312 -13.769531 1.203125 -14.054688 1.203125 -14.390625 C 1.203125 -14.722656 1.320312 -15.003906 1.5625 -15.234375 C 1.8125 -15.472656 2.109375 -15.59375 2.453125 -15.59375 C 2.796875 -15.59375 3.09375 -15.472656 3.34375 -15.234375 C 3.59375 -15.003906 3.71875 -14.722656 3.71875 -14.390625 C 3.71875 -14.054688 3.59375 -13.769531 3.34375 -13.53125 C 3.09375 -13.289062 2.796875 -13.171875 2.453125 -13.171875 Z M 2.453125 -13.171875 "/></g></g></g><g fill="#000000" fill-opacity="1"><g transform="translate(105.466267, 33.645581)"><g><path d="M 1.546875 0 L 1.546875 -11.265625 L 3.28125 -11.265625 L 3.28125 -9.53125 L 3.390625 -9.53125 C 3.597656 -10.101562 3.957031 -10.5625 4.46875 -10.90625 C 4.988281 -11.25 5.585938 -11.421875 6.265625 -11.421875 C 6.410156 -11.421875 6.566406 -11.414062 6.734375 -11.40625 C 6.910156 -11.40625 7.050781 -11.398438 7.15625 -11.390625 L 7.15625 -9.5625 C 7.09375 -9.582031 6.953125 -9.601562 6.734375 -9.625 C 6.523438 -9.65625 6.300781 -9.671875 6.0625 -9.671875 C 5.550781 -9.671875 5.085938 -9.5625 4.671875 -9.34375 C 4.265625 -9.125 3.941406 -8.816406 3.703125 -8.421875 C 3.472656 -8.023438 3.359375 -7.5625 3.359375 -7.03125 L 3.359375 0 Z M 1.546875 0 "/></g></g></g><g fill="#000000" fill-opacity="1"><g transform="translate(111.338602, 33.645581)"><g><path d="M 1.546875 0 L 1.546875 -11.265625 L 3.3125 -11.265625 L 3.3125 -8.796875 L 3.15625 -8.796875 C 3.320312 -9.390625 3.570312 -9.882812 3.90625 -10.28125 C 4.25 -10.675781 4.644531 -10.972656 5.09375 -11.171875 C 5.550781 -11.367188 6.023438 -11.46875 6.515625 -11.46875 C 7.335938 -11.46875 8.015625 -11.210938 8.546875 -10.703125 C 9.078125 -10.203125 9.414062 -9.554688 9.5625 -8.765625 L 9.296875 -8.765625 C 9.429688 -9.316406 9.675781 -9.789062 10.03125 -10.1875 C 10.382812 -10.59375 10.816406 -10.90625 11.328125 -11.125 C 11.835938 -11.351562 12.394531 -11.46875 13 -11.46875 C 13.65625 -11.46875 14.253906 -11.320312 14.796875 -11.03125 C 15.335938 -10.75 15.769531 -10.316406 16.09375 -9.734375 C 16.425781 -9.160156 16.59375 -8.429688 16.59375 -7.546875 L 16.59375 0 L 14.765625 0 L 14.765625 -7.5 C 14.765625 -8.332031 14.535156 -8.925781 14.078125 -9.28125 C 13.617188 -9.632812 13.082031 -9.8125 12.46875 -9.8125 C 11.945312 -9.8125 11.5 -9.703125 11.125 -9.484375 C 10.757812 -9.273438 10.472656 -8.976562 10.265625 -8.59375 C 10.066406 -8.21875 9.96875 -7.789062 9.96875 -7.3125 L 9.96875 0 L 8.15625 0 L 8.15625 -7.6875 C 8.15625 -8.332031 7.941406 -8.847656 7.515625 -9.234375 C 7.097656 -9.617188 6.566406 -9.8125 5.921875 -9.8125 C 5.472656 -9.8125 5.050781 -9.707031 4.65625 -9.5 C 4.257812 -9.289062 3.941406 -8.976562 3.703125 -8.5625 C 3.472656 -8.15625 3.359375 -7.648438 3.359375 -7.046875 L 3.359375 0 Z M 1.546875 0 "/></g></g></g><g fill="#000000" fill-opacity="1"><g transform="translate(127.723727, 33.645581)"><g><path d="M 2.84375 0.140625 C 2.46875 0.140625 2.148438 0.0078125 1.890625 -0.25 C 1.628906 -0.519531 1.5 -0.84375 1.5 -1.21875 C 1.5 -1.59375 1.628906 -1.910156 1.890625 -2.171875 C 2.148438 -2.441406 2.46875 -2.578125 2.84375 -2.578125 C 3.226562 -2.578125 3.550781 -2.441406 3.8125 -2.171875 C 4.070312 -1.910156 4.203125 -1.59375 4.203125 -1.21875 C 4.203125 -0.84375 4.070312 -0.519531 3.8125 -0.25 C 3.550781 0.0078125 3.226562 0.140625 2.84375 0.140625 Z M 2.84375 0.140625 "/></g></g></g><g fill="#000000" fill-opacity="1"><g transform="translate(131.689288, 33.645581)"><g><path d="M 4.75 0.25 C 4.03125 0.25 3.378906 0.117188 2.796875 -0.140625 C 2.210938 -0.410156 1.75 -0.800781 1.40625 -1.3125 C 1.0625 -1.832031 0.890625 -2.46875 0.890625 -3.21875 C 0.890625 -3.863281 1.015625 -4.382812 1.265625 -4.78125 C 1.523438 -5.1875 1.867188 -5.503906 2.296875 -5.734375 C 2.722656 -5.972656 3.195312 -6.148438 3.71875 -6.265625 C 4.238281 -6.378906 4.765625 -6.46875 5.296875 -6.53125 C 5.984375 -6.625 6.535156 -6.691406 6.953125 -6.734375 C 7.367188 -6.785156 7.675781 -6.867188 7.875 -6.984375 C 8.082031 -7.097656 8.1875 -7.289062 8.1875 -7.5625 L 8.1875 -7.640625 C 8.1875 -8.097656 8.09375 -8.488281 7.90625 -8.8125 C 7.726562 -9.132812 7.460938 -9.382812 7.109375 -9.5625 C 6.753906 -9.738281 6.316406 -9.828125 5.796875 -9.828125 C 5.253906 -9.828125 4.789062 -9.742188 4.40625 -9.578125 C 4.019531 -9.410156 3.707031 -9.191406 3.46875 -8.921875 C 3.226562 -8.660156 3.0625 -8.382812 2.96875 -8.09375 L 1.203125 -8.5625 C 1.429688 -9.25 1.78125 -9.800781 2.25 -10.21875 C 2.71875 -10.632812 3.253906 -10.9375 3.859375 -11.125 C 4.472656 -11.320312 5.101562 -11.421875 5.75 -11.421875 C 6.1875 -11.421875 6.648438 -11.363281 7.140625 -11.25 C 7.628906 -11.144531 8.085938 -10.953125 8.515625 -10.671875 C 8.953125 -10.390625 9.304688 -9.992188 9.578125 -9.484375 C 9.847656 -8.972656 9.984375 -8.3125 9.984375 -7.5 L 9.984375 0 L 8.203125 0 L 8.203125 -1.546875 L 8.09375 -1.546875 C 7.96875 -1.285156 7.765625 -1.015625 7.484375 -0.734375 C 7.203125 -0.453125 6.835938 -0.21875 6.390625 -0.03125 C 5.941406 0.15625 5.394531 0.25 4.75 0.25 Z M 5.046875 -1.359375 C 5.734375 -1.359375 6.304688 -1.488281 6.765625 -1.75 C 7.234375 -2.019531 7.585938 -2.363281 7.828125 -2.78125 C 8.066406 -3.207031 8.1875 -3.648438 8.1875 -4.109375 L 8.1875 -5.640625 C 8.101562 -5.554688 7.941406 -5.476562 7.703125 -5.40625 C 7.472656 -5.34375 7.203125 -5.285156 6.890625 -5.234375 C 6.585938 -5.179688 6.285156 -5.132812 5.984375 -5.09375 C 5.679688 -5.050781 5.425781 -5.019531 5.21875 -5 C 4.78125 -4.945312 4.367188 -4.851562 3.984375 -4.71875 C 3.609375 -4.582031 3.300781 -4.390625 3.0625 -4.140625 C 2.832031 -3.890625 2.71875 -3.550781 2.71875 -3.125 C 2.71875 -2.738281 2.816406 -2.414062 3.015625 -2.15625 C 3.222656 -1.894531 3.5 -1.695312 3.84375 -1.5625 C 4.1875 -1.425781 4.585938 -1.359375 5.046875 -1.359375 Z M 5.046875 -1.359375 "/></g></g></g><g fill="#000000" fill-opacity="1"><g transform="translate(141.477151, 33.645581)"><g><path d="M 1.546875 0 L 1.546875 -11.265625 L 3.359375 -11.265625 L 3.359375 0 Z M 2.453125 -13.171875 C 2.109375 -13.171875 1.8125 -13.289062 1.5625 -13.53125 C 1.320312 -13.769531 1.203125 -14.054688 1.203125 -14.390625 C 1.203125 -14.722656 1.320312 -15.003906 1.5625 -15.234375 C 1.8125 -15.472656 2.109375 -15.59375 2.453125 -15.59375 C 2.796875 -15.59375 3.09375 -15.472656 3.34375 -15.234375 C 3.59375 -15.003906 3.71875 -14.722656 3.71875 -14.390625 C 3.71875 -14.054688 3.59375 -13.769531 3.34375 -13.53125 C 3.09375 -13.289062 2.796875 -13.171875 2.453125 -13.171875 Z M 2.453125 -13.171875 "/></g></g></g><path fill="#000000" d="M 31.691406 0.625 L 30.683594 1.621094 L 23.472656 8.757812 L 19.476562 12.710938 L 9.621094 22.457031 L 9.621094 22.460938 L 10.082031 22.925781 L 12.875 25.75 L 19.476562 19.21875 L 19.476562 41.097656 L 23.726562 45.035156 L 23.726562 30.558594 L 29.777344 30.558594 L 29.777344 50.324219 L 29.804688 50.324219 L 29.78125 50.324219 L 30.757812 51.355469 L 31.742188 52.390625 L 32.730469 51.359375 L 33.722656 50.324219 L 33.714844 50.324219 L 33.714844 50.304688 L 33.722656 50.296875 L 33.714844 50.296875 L 33.714844 30.589844 L 40.070312 30.589844 L 40.070312 45.15625 L 44.324219 41.21875 L 44.324219 41.128906 L 44.335938 41.117188 L 44.324219 41.117188 L 44.324219 19.632812 L 50.527344 25.769531 L 53.324219 22.945312 L 53.785156 22.480469 L 44.324219 13.121094 L 40.070312 8.914062 L 31.714844 0.648438 Z M 29.78125 9.023438 L 29.78125 26.507812 L 29.777344 26.507812 L 29.777344 26.539062 L 23.726562 26.539062 L 23.726562 15.011719 Z M 33.710938 9.132812 L 40.070312 15.425781 L 40.070312 26.507812 L 33.710938 26.507812 Z M 33.695312 50.324219 L 33.714844 50.324219 Z M 33.695312 50.324219 " fill-opacity="1" fill-rule="nonzero"/></svg>